<?xml version="1.0" standalone="no"?>
<!DOCTYPE svg PUBLIC "-//W3C//DTD SVG 1.1//EN" "https://www.w3.org/Graphics/SVG/1.1/DTD/svg11.dtd">

<svg width="800" height="600" version="1.1" xmlns="http://www.w3.org/2000/svg">
	<ellipse stroke="black" stroke-width="1" fill="none" cx="144.5" cy="307.5" rx="30" ry="30"/>
	<text x="134.5" y="313.5" font-family="Times New Roman" font-size="20">q0</text>
	<ellipse stroke="black" stroke-width="1" fill="none" cx="144.5" cy="164.5" rx="30" ry="30"/>
	<text x="134.5" y="170.5" font-family="Times New Roman" font-size="20">q1</text>
	<ellipse stroke="black" stroke-width="1" fill="none" cx="557.5" cy="307.5" rx="30" ry="30"/>
	<text x="547.5" y="313.5" font-family="Times New Roman" font-size="20">q3</text>
	<ellipse stroke="black" stroke-width="1" fill="none" cx="557.5" cy="307.5" rx="24" ry="24"/>
	<ellipse stroke="black" stroke-width="1" fill="none" cx="386.5" cy="307.5" rx="30" ry="30"/>
	<text x="376.5" y="313.5" font-family="Times New Roman" font-size="20">q2</text>
	<ellipse stroke="black" stroke-width="1" fill="none" cx="386.5" cy="307.5" rx="24" ry="24"/>
	<polygon stroke="black" stroke-width="1" points="57.5,307.5 114.5,307.5"/>
	<polygon fill="black" stroke-width="1" points="114.5,307.5 106.5,302.5 106.5,312.5"/>
	<polygon stroke="black" stroke-width="1" points="144.5,277.5 144.5,194.5"/>
	<polygon fill="black" stroke-width="1" points="144.5,194.5 139.5,202.5 149.5,202.5"/>
	<text x="149.5" y="242.5" font-family="Times New Roman" font-size="20">_</text>
	<polygon stroke="black" stroke-width="1" points="174.5,307.5 356.5,307.5"/>
	<polygon fill="black" stroke-width="1" points="356.5,307.5 348.5,302.5 348.5,312.5"/>
	<text x="244.5" y="328.5" font-family="Times New Roman" font-size="20">[a-Z]</text>
	<polygon stroke="black" stroke-width="1" points="170.328,179.762 360.672,292.238"/>
	<polygon fill="black" stroke-width="1" points="360.672,292.238 356.328,283.864 351.241,292.473"/>
	<text x="219.5" y="257.5" font-family="Times New Roman" font-size="20">[a-Z]</text>
	<polygon stroke="black" stroke-width="1" points="416.5,307.5 527.5,307.5"/>
	<polygon fill="black" stroke-width="1" points="527.5,307.5 519.5,302.5 519.5,312.5"/>
	<text x="462.5" y="328.5" font-family="Times New Roman" font-size="20">\w</text>
	<path stroke="black" stroke-width="1" fill="none" d="M 562.081,277.97 A 22.5,22.5 0 1 1 583.725,293.174"/>
	<text x="601.5" y="243.5" font-family="Times New Roman" font-size="20">\w</text>
	<polygon fill="black" stroke-width="1" points="583.725,293.174 592.914,295.311 589.672,285.851"/>
</svg>
